<?xml version="1.0" encoding="UTF-8" standalone="no"?>
<svg width="30px" height="30px" viewBox="0 0 30 30" version="1.1" xmlns="http://www.w3.org/2000/svg" xmlns:xlink="http://www.w3.org/1999/xlink">
    <!-- Generator: Sketch 48.2 (47327) - http://www.bohemiancoding.com/sketch -->
    <title>shopping-cart</title>
    <desc>Created with Sketch.</desc>
    <defs></defs>
    <g id="Header-Simple" stroke="none" stroke-width="1" fill="none" fill-rule="evenodd" transform="translate(-1359.000000, -45.000000)">
        <g id="iconos" transform="translate(1207.000000, 45.000000)" fill="#000000" fill-rule="nonzero">
            <g id="Menu/texto-icono" transform="translate(152.000000, 0.000000)">
                <g id="icono/menu/usuario">
                    <g id="shopping-cart" transform="translate(0.755102, 0.000000)">
                        <path d="M11.9125016,24.2966122 C10.5347831,24.2966122 9.41391979,25.5752879 9.41391979,27.146983 C9.41391979,28.7186781 10.5347831,29.9973539 11.9125016,29.9973539 C13.2902201,29.9973539 14.4110834,28.7186781 14.4110834,27.146983 C14.4110279,25.5752879 13.2901646,24.2966122 11.9125016,24.2966122 Z M11.9125016,28.405719 C11.3040171,28.405719 10.8090062,27.8409495 10.8090062,27.1468564 C10.8090062,26.4527001 11.3040726,25.8879938 11.9125016,25.8879938 C12.5209306,25.8879938 13.015997,26.4527634 13.015997,27.1468564 C13.015997,27.8410761 12.5209306,28.405719 11.9125016,28.405719 Z" id="Shape"></path>
                        <path d="M20.6765981,24.2966122 C19.2988796,24.2966122 18.1780163,25.5752879 18.1780163,27.146983 C18.1780163,28.7186781 19.2988796,29.9973539 20.6765981,29.9973539 C22.0543167,29.9973539 23.1751799,28.7186781 23.1751799,27.146983 C23.1751244,25.5752879 22.0542612,24.2966122 20.6765981,24.2966122 Z M20.6765981,28.405719 C20.0681136,28.405719 19.5731027,27.8409495 19.5731027,27.1468564 C19.5731027,26.4527001 20.0681691,25.8879938 20.6765981,25.8879938 C21.2850826,25.8879938 21.7800936,26.4527634 21.7800936,27.1468564 C21.7800936,27.8410761 21.2850271,28.405719 20.6765981,28.405719 Z" id="Shape"></path>
                        <path d="M21.2917412,9.28970611 L11.2955829,9.28970611 C10.9103278,9.28970611 10.5980397,9.6459629 10.5980397,10.0854602 C10.5980397,10.5249575 10.9103832,10.8812143 11.2955829,10.8812143 L21.2917412,10.8812143 C21.6769963,10.8812143 21.9892844,10.5249575 21.9892844,10.0854602 C21.9892844,9.6458996 21.6769963,9.28970611 21.2917412,9.28970611 Z" id="Shape"></path>
                        <path d="M20.7476786,13.4219811 L11.839701,13.4219811 C11.4544458,13.4219811 11.1421578,13.7782379 11.1421578,14.2177352 C11.1421578,14.6572325 11.4544458,15.0134893 11.839701,15.0134893 L20.7476231,15.0134893 C21.1328783,15.0134893 21.4451663,14.6572325 21.4451663,14.2177352 C21.4451663,13.7783012 21.1328783,13.4219811 20.7476786,13.4219811 Z" id="Shape"></path>
                        <path d="M28.0959917,5.74416607 C27.8299808,5.37170427 27.4357921,5.15812744 27.0145806,5.15812744 L5.28681243,5.15812744 L4.84801111,2.72807376 C4.75639995,2.2211611 4.45332296,1.79552665 4.03710537,1.58935601 L0.975428491,0.0733023043 C0.621968141,-0.101850957 0.211188397,0.0831772262 0.057874277,0.486276599 C-0.0956063081,0.889502574 0.0665859371,1.35818156 0.419879822,1.53308161 L3.48161219,3.04919862 L6.85674237,21.7394505 C6.98969229,22.475512 7.56432892,23.0097706 8.22314128,23.0097706 L24.9343249,23.0097706 C25.31958,23.0097706 25.6318681,22.6535138 25.6318681,22.2140165 C25.6318681,21.7745191 25.31958,21.4182623 24.9343249,21.4182623 L8.22319677,21.4182623 L7.81263898,19.1447515 L25.0635016,19.1447515 C25.7222585,19.1447515 26.2969506,18.6104929 26.4298451,17.8744314 L28.3809795,7.07057063 C28.465932,6.60011923 28.362058,6.11656456 28.0959917,5.74416607 Z M25.0635016,17.5533699 L7.52526517,17.5533699 L5.57424173,6.74957237 L27.0145251,6.74957237 L25.0635016,17.5533699 Z" id="Shape"></path>
                    </g>
                </g>
            </g>
        </g>
    </g>
</svg>